<?xml version="1.0" standalone="no"?>
<!DOCTYPE svg PUBLIC "-//W3C//DTD SVG 20010904//EN"
 "http://www.w3.org/TR/2001/REC-SVG-20010904/DTD/svg10.dtd">
<svg version="1.0" xmlns="http://www.w3.org/2000/svg"
 width="500.000000pt" height="500.000000pt" viewBox="0 0 500.000000 500.000000"
 preserveAspectRatio="xMidYMid meet">

<g transform="translate(0.000000,500.000000) scale(0.100000,-0.100000)"
fill="#000000" stroke="none">
<path d="M2360 4679 c-32 -13 -78 -57 -96 -91 -8 -15 -14 -51 -14 -81 0 -43 6
-62 33 -101 59 -89 67 -109 67 -168 0 -71 15 -88 76 -88 71 0 84 12 84 73 0
68 15 119 41 143 87 79 78 228 -17 294 -40 27 -131 37 -174 19z m133 -30 c39
-20 76 -61 88 -96 16 -49 4 -95 -38 -150 -20 -27 -42 -64 -49 -83 -12 -34 -14
-35 -64 -35 -51 0 -52 1 -64 36 -7 20 -27 54 -45 76 -75 93 -57 196 44 251 26
15 100 15 128 1z m-10 -426 c0 -13 -1 -27 -2 -33 0 -5 -23 -10 -51 -10 l-50 0
0 36 0 35 52 -3 c47 -3 52 -5 51 -25z"/>
<path d="M3032 4609 c-12 -5 -28 -20 -34 -35 -10 -22 -9 -31 5 -56 15 -26 15
-32 2 -58 -8 -16 -21 -27 -28 -25 -7 3 -30 -4 -52 -15 -34 -17 -42 -18 -60 -6
-11 7 -21 24 -22 37 -2 28 -36 59 -64 59 -27 0 -59 -35 -59 -65 0 -47 66 -85
96 -55 8 8 18 8 35 0 21 -9 25 -18 24 -56 0 -34 -5 -48 -18 -56 -13 -7 -22 -7
-30 1 -28 28 -97 -12 -97 -56 0 -21 46 -63 70 -63 29 0 60 35 60 69 0 40 24
46 76 20 40 -19 44 -24 44 -57 0 -19 -6 -43 -14 -51 -7 -9 -16 -25 -20 -37 -9
-28 28 -74 60 -74 31 0 64 33 64 65 0 24 -7 33 -43 58 -11 7 -21 30 -24 54 -5
36 -3 42 16 48 12 4 27 18 33 31 16 34 44 30 81 -11 35 -40 67 -45 97 -15 56
56 -17 138 -81 91 -41 -30 -75 -28 -84 7 -3 15 -15 36 -26 48 -28 30 -10 79
32 88 40 8 59 48 39 83 -18 31 -47 43 -78 32z m42 -25 c21 -8 21 -48 0 -65
-20 -17 -48 -1 -52 31 -5 31 19 47 52 34z m-261 -125 c15 -24 1 -49 -27 -49
-31 0 -48 27 -34 53 11 22 46 19 61 -4z m207 -69 c26 -26 26 -81 0 -105 -27
-25 -80 -22 -102 6 -56 68 40 161 102 99z m201 -71 c9 -18 7 -25 -9 -41 -16
-16 -23 -18 -41 -9 -23 13 -28 40 -9 59 19 19 46 14 59 -9z m-392 -78 c14 -26
-8 -54 -39 -49 -25 3 -36 27 -26 54 8 20 53 17 65 -5z m212 -133 c10 -18 8
-24 -11 -40 -38 -31 -83 15 -48 50 19 19 46 14 59 -10z"/>
<path d="M1195 4194 c-183 -65 -234 -306 -95 -445 145 -145 397 -75 451 124
25 92 -16 216 -90 278 -68 56 -179 74 -266 43z m135 -34 c21 -21 50 -83 50
-106 0 -11 -20 -14 -90 -14 -100 0 -102 2 -75 67 31 73 74 94 115 53z m-128
-12 c-5 -7 -17 -33 -25 -58 -15 -44 -16 -45 -62 -48 l-48 -3 20 33 c10 18 41
48 67 66 47 31 70 36 48 10z m261 -47 c20 -23 37 -46 37 -51 0 -6 -19 -10 -42
-10 -42 0 -43 1 -59 48 -9 26 -19 55 -24 66 -7 17 -6 17 22 3 16 -9 46 -34 66
-56z m-305 -161 l0 -71 -51 3 -52 3 -3 68 -3 67 54 0 54 0 1 -70z m232 0 l0
-70 -100 0 -99 0 -7 35 c-3 19 -3 51 0 70 l7 35 99 0 100 0 0 -70z m134 54 c3
-9 6 -33 6 -54 0 -63 -6 -70 -61 -70 l-49 0 0 70 0 70 49 0 c35 0 51 -4 55
-16z m-348 -199 c8 -22 19 -48 25 -58 5 -11 8 -21 6 -23 -9 -9 -100 63 -119
94 l-21 33 48 -3 c46 -3 49 -4 61 -43z m204 36 c0 -24 -26 -79 -48 -103 -48
-52 -87 -32 -122 61 l-20 51 95 0 c52 0 95 -4 95 -9z m120 -1 c0 -16 -71 -90
-103 -107 -28 -14 -29 -14 -22 3 5 11 15 40 24 66 16 47 17 48 59 48 23 0 42
-4 42 -10z"/>
<path d="M2390 4020 l0 -50 -35 0 -35 0 0 -155 0 -155 35 0 35 0 0 -47 0 -47
48 47 48 47 137 0 137 0 0 35 0 35 50 0 50 0 0 170 0 170 -235 0 -235 0 0 -50z
m440 -120 l0 -140 -35 0 -35 0 0 105 0 105 -170 0 -170 0 0 35 0 35 205 0 205
0 0 -140z m-100 -85 l0 -125 -127 0 c-124 0 -128 -1 -155 -27 l-28 -27 0 27
c0 24 -4 27 -35 27 l-35 0 0 125 0 125 190 0 190 0 0 -125z"/>
<path d="M3020 3891 c0 -10 -16 -53 -35 -95 -47 -103 -46 -134 5 -180 46 -42
54 -43 98 -16 47 29 183 29 219 0 32 -25 54 -25 85 -1 13 11 37 21 53 23 29 3
30 4 33 66 3 58 1 65 -27 92 -16 17 -40 30 -53 30 -15 0 -41 18 -73 50 l-49
50 -128 0 c-118 0 -128 -1 -128 -19z m128 -43 l3 -38 -60 0 c-64 0 -70 5 -50
43 17 31 29 38 69 35 33 -3 35 -5 38 -40z m137 11 c19 -17 35 -35 35 -40 0 -5
-31 -9 -70 -9 l-70 0 0 40 c0 39 1 40 35 40 24 0 45 -9 70 -31z m-135 -149 c0
-55 -3 -70 -15 -70 -8 0 -21 13 -29 29 -24 46 -66 54 -103 19 l-23 -21 0 27
c0 15 7 40 15 56 15 29 18 30 85 30 l70 0 0 -70z m282 53 c24 -22 26 -123 3
-123 -9 0 -18 8 -22 18 -11 32 -36 52 -63 52 -27 0 -52 -20 -63 -52 -5 -14
-18 -18 -57 -18 l-50 0 0 70 0 70 117 0 c94 0 120 -3 135 -17z m-354 -115 c4
-33 -31 -49 -55 -25 -24 24 -8 59 25 55 21 -2 28 -9 30 -30z m301 18 c16 -20
-3 -56 -29 -56 -26 0 -45 36 -29 56 6 8 19 14 29 14 10 0 23 -6 29 -14z"/>
<path d="M750 3805 c-74 -34 -110 -87 -110 -165 0 -62 27 -120 72 -152 28 -19
45 -23 111 -23 73 0 77 -1 77 -22 0 -20 5 -23 35 -23 33 0 35 -2 35 -35 0 -33
2 -35 35 -35 32 0 35 -2 35 -30 l0 -30 65 0 65 0 0 57 0 58 -86 86 -87 87 -1
59 c-2 70 -29 121 -81 153 -45 28 -120 35 -165 15z m145 -40 c55 -32 79 -81
72 -145 l-6 -47 90 -89 c84 -84 89 -91 89 -131 0 -42 0 -43 -35 -43 -33 0 -35
2 -35 35 0 33 -2 35 -35 35 -33 0 -35 2 -35 35 0 33 -2 35 -35 35 -33 0 -35 2
-35 35 0 39 -2 41 -33 21 -42 -28 -98 -29 -147 -4 -85 43 -113 153 -58 224 53
67 131 82 203 39z"/>
<path d="M744 3705 c-9 -23 3 -45 25 -45 23 0 35 28 20 46 -15 18 -38 18 -45
-1z"/>
<path d="M4192 3713 c-32 -13 -42 -61 -42 -197 0 -106 -4 -143 -17 -171 -24
-49 -9 -102 36 -132 54 -37 117 -26 158 27 17 21 15 89 -2 120 -11 18 -14 63
-15 172 0 146 0 147 -26 167 -25 20 -63 26 -92 14z m82 -45 c13 -18 16 -52 16
-161 0 -106 4 -145 16 -169 29 -56 -10 -118 -73 -118 -65 0 -106 76 -68 126
11 15 14 52 15 162 0 79 5 152 10 163 15 27 64 25 84 -3z"/>
<path d="M4220 3401 c0 -31 -5 -53 -15 -61 -34 -28 -8 -85 36 -78 36 5 47 33
27 69 -10 17 -18 51 -18 75 0 32 -4 44 -15 44 -11 0 -15 -12 -15 -49z"/>
<path d="M3149 3486 c-51 -13 -132 -62 -167 -99 l-23 -24 42 -38 c135 -122
323 -122 458 0 40 37 41 38 24 58 -53 58 -184 118 -256 116 -18 0 -53 -6 -78
-13z m131 -33 c39 -27 49 -45 50 -86 0 -49 -13 -73 -50 -92 -61 -32 -120 -11
-147 52 -37 90 69 180 147 126z m-171 -34 c-6 -12 -9 -45 -7 -75 3 -30 1 -54
-3 -54 -13 0 -93 65 -92 75 0 10 90 75 104 75 6 0 5 -10 -2 -21z m294 -10 c26
-17 49 -35 52 -40 6 -9 -83 -78 -103 -79 -9 0 -10 5 -2 19 5 11 10 36 10 56 0
20 -5 45 -10 56 -15 27 -1 24 53 -12z"/>
<path d="M3207 3383 c-13 -12 -7 -41 10 -47 21 -8 48 17 40 38 -6 16 -38 22
-50 9z"/>
<path d="M2030 3375 c0 -33 -2 -35 -33 -35 -28 0 -36 -5 -50 -35 -11 -23 -24
-35 -37 -35 -18 0 -20 -7 -20 -61 0 -58 -1 -60 -30 -70 -34 -12 -40 -46 -15
-89 20 -35 18 -50 -6 -50 -11 0 -17 -4 -14 -10 3 -5 16 -10 27 -10 12 0 32
-10 46 -22 l23 -23 39 23 39 22 37 -22 37 -22 40 22 39 21 38 -22 39 -22 23
23 c14 12 34 22 46 22 12 0 22 5 22 10 0 6 -7 10 -15 10 -19 0 -19 17 0 50 25
43 19 77 -15 89 -29 10 -30 12 -30 70 0 54 -2 61 -20 61 -13 0 -26 12 -37 35
-14 30 -22 35 -50 35 -31 0 -33 2 -33 35 0 35 0 35 -45 35 -45 0 -45 0 -45
-35z m60 -15 c0 -21 -24 -28 -35 -10 -8 14 3 30 21 30 8 0 14 -9 14 -20z m88
-72 c3 -16 -7 -18 -102 -18 -82 0 -106 3 -106 13 0 25 13 28 109 25 82 -3 96
-6 99 -20z m50 -85 c2 -24 1 -43 -1 -43 -2 0 -37 11 -77 25 l-74 25 -66 -21
c-36 -12 -71 -24 -77 -27 -14 -5 -19 69 -6 82 4 3 72 5 152 4 l146 -3 3 -42z
m-168 -128 c0 -86 -8 -113 -25 -85 -9 15 -58 12 -83 -6 -12 -8 -27 -12 -32 -9
-19 12 -70 124 -60 130 15 10 173 63 188 64 9 1 12 -24 12 -94z m133 66 c48
-16 91 -32 97 -36 10 -6 -41 -118 -60 -130 -5 -3 -20 1 -32 9 -25 18 -74 21
-83 6 -17 -28 -25 -1 -25 85 0 52 4 95 8 95 5 0 47 -13 95 -29z"/>
<path d="M2796 3159 c-3 -13 -10 -60 -16 -104 -6 -44 -14 -97 -19 -117 -5 -20
-6 -40 -3 -43 3 -3 26 -3 51 0 25 2 88 7 140 10 l94 6 -4 -458 -4 -458 150 -3
c83 -1 161 0 173 3 l24 6 -8 262 c-9 288 -10 332 -6 521 l2 129 135 -6 135 -5
-6 136 c-4 75 -8 139 -10 141 -2 2 -94 -2 -205 -9 -191 -12 -511 -9 -587 6
-27 5 -32 3 -36 -17z m531 -631 c-3 -8 -6 -5 -6 6 -1 11 2 17 5 13 3 -3 4 -12
1 -19z"/>
<path d="M1406 2773 c3 -219 6 -412 6 -430 1 -18 5 -30 11 -26 5 3 4 -5 -3
-17 -6 -12 -10 -23 -8 -24 2 -2 12 -8 23 -15 18 -11 18 -12 -7 -7 l-26 6 -7
-113 c-11 -168 -29 -152 170 -152 l170 0 0 360 c0 198 4 462 9 588 l8 227
-176 0 -176 0 6 -397z m31 -18 c0 -8 -4 -15 -9 -15 -4 0 -8 7 -8 15 0 8 4 15
8 15 5 0 9 -7 9 -15z m37 -71 c3 -8 2 -12 -4 -9 -6 3 -10 10 -10 16 0 14 7 11
14 -7z m36 -1 c0 -5 -5 -15 -10 -23 -7 -12 -9 -10 -7 8 1 19 17 33 17 15z m31
-196 c-10 -9 -11 -8 -5 6 3 10 9 15 12 12 3 -3 0 -11 -7 -18z m47 -53 c4 2 8
-8 9 -22 l1 -27 -14 25 c-7 14 -13 30 -13 35 0 6 3 4 6 -3 2 -6 8 -10 11 -8z"/>
<path d="M1019 3041 c-47 -15 -72 -32 -61 -43 8 -8 23 -6 52 6 49 20 131 20
185 1 50 -18 55 -18 55 -1 0 33 -159 58 -231 37z"/>
<path d="M2500 3028 c0 -9 13 -18 31 -22 41 -8 99 -66 99 -100 0 -16 6 -26 15
-26 38 0 0 91 -55 131 -35 26 -90 36 -90 17z"/>
<path d="M1000 2957 c-46 -24 -69 -51 -57 -64 5 -4 16 -2 25 5 63 45 79 52
130 52 66 0 113 -21 152 -68 25 -30 30 -33 36 -18 8 21 -36 70 -88 97 -53 27
-142 26 -198 -4z"/>
<path d="M2500 2960 c0 -6 11 -15 24 -21 13 -6 30 -22 37 -35 7 -13 18 -24 25
-24 21 0 -3 56 -31 74 -28 18 -55 21 -55 6z"/>
<path d="M1050 2909 c-40 -16 -80 -60 -91 -102 -13 -50 4 -77 20 -31 29 83 81
122 146 110 37 -7 95 -65 95 -96 0 -10 5 -20 11 -22 8 -3 -9 -52 -58 -167 -4
-9 -1 -12 8 -9 27 9 61 87 66 151 6 80 -16 123 -77 155 -47 24 -80 27 -120 11z"/>
<path d="M2500 2890 c0 -5 7 -10 16 -10 8 0 12 5 9 10 -3 6 -10 10 -16 10 -5
0 -9 -4 -9 -10z"/>
<path d="M1045 2825 c-14 -13 -25 -34 -25 -47 0 -31 -10 -45 -43 -57 -35 -14
-35 -31 1 -31 33 0 53 16 45 38 -4 10 -2 13 5 8 8 -5 10 -2 6 8 -3 9 7 29 25
48 26 28 33 31 57 23 18 -7 32 -24 45 -55 l18 -45 0 47 c1 39 -3 50 -25 67
-36 28 -79 27 -109 -4z"/>
<path d="M3540 2727 l0 -114 -29 5 c-36 5 -74 -29 -69 -61 4 -31 33 -28 33 3
0 21 5 25 30 25 23 0 31 -5 33 -22 2 -13 10 -23 18 -23 11 0 14 22 14 115 0
63 4 115 9 115 5 0 15 -13 23 -30 13 -30 38 -42 38 -17 -1 27 -68 117 -87 117
-10 0 -13 -26 -13 -113z"/>
<path d="M2143 2816 c-105 -34 -196 -116 -240 -214 -31 -70 -47 -217 -33 -294
25 -129 99 -227 218 -285 76 -38 77 -38 202 -38 115 0 130 2 183 27 112 52
200 163 227 283 16 71 5 220 -20 289 -31 81 -120 174 -202 212 -56 25 -76 29
-178 31 -77 2 -129 -2 -157 -11z m433 -197 c1 -16 -2 -26 -7 -24 -4 3 -7 19
-7 35 1 38 12 29 14 -11z m-632 2 c3 -5 -1 -11 -9 -14 -9 -4 -12 -1 -8 9 6 16
10 17 17 5z m311 -31 c-4 -6 5 -10 19 -10 41 0 105 -30 125 -59 56 -80 51
-170 -14 -237 -38 -40 -46 -44 -89 -44 -59 0 -99 20 -131 67 -48 71 -22 213
45 248 15 8 30 21 33 30 4 8 9 15 12 15 4 0 3 -4 0 -10z m-344 -44 c-14 -36
-22 -33 -9 5 6 16 12 28 14 26 3 -2 0 -16 -5 -31z m774 -16 c3 -5 1 -10 -4
-10 -6 0 -11 5 -11 10 0 6 2 10 4 10 3 0 8 -4 11 -10z m-575 -90 c0 -5 -4 -10
-10 -10 -5 0 -10 5 -10 10 0 6 5 10 10 10 6 0 10 -4 10 -10z m384 -30 c-5 -5
-10 3 -11 18 -1 22 0 24 9 8 6 -10 6 -22 2 -26z"/>
<path d="M465 2806 c-82 -36 -145 -130 -145 -216 0 -86 67 -186 142 -212 20
-7 28 -17 28 -34 0 -22 -4 -24 -50 -24 -38 0 -50 -4 -50 -15 0 -13 25 -15 165
-15 140 0 165 2 165 15 0 11 -12 15 -50 15 -45 0 -50 2 -50 23 0 16 13 29 50
49 152 84 147 319 -9 400 -60 31 -143 37 -196 14z m181 -36 c45 -22 89 -77
104 -131 14 -49 14 -49 -34 -49 -42 0 -45 2 -56 35 -16 49 -53 75 -107 75 -38
0 -50 -5 -79 -34 -19 -19 -34 -43 -34 -55 0 -18 -6 -21 -45 -21 -42 0 -45 2
-45 25 0 54 51 125 115 158 43 23 130 21 181 -3z m-28 -126 c43 -49 14 -127
-54 -140 -24 -4 -37 0 -62 21 -45 38 -45 92 0 130 38 32 81 29 116 -11z m-162
-113 c21 -36 52 -51 103 -51 42 0 86 28 96 60 5 16 15 20 51 20 53 0 56 -13
19 -76 -60 -103 -206 -129 -299 -53 -34 29 -76 94 -76 119 0 5 20 10 44 10 39
0 47 -4 62 -29z m134 -191 c0 -16 -7 -20 -35 -20 -28 0 -35 4 -35 20 0 16 7
20 35 20 28 0 35 -4 35 -20z"/>
<path d="M1090 2763 c0 -10 5 -25 10 -33 8 -11 9 -9 6 12 -3 15 1 29 7 32 7 2
4 5 -5 5 -11 1 -18 -6 -18 -16z"/>
<path d="M4078 2764 c-3 -3 -4 -48 -2 -99 2 -52 1 -101 -2 -110 -4 -9 -19 -15
-40 -15 -44 0 -73 -38 -56 -75 19 -41 100 -46 118 -8 5 10 11 68 14 128 l5
110 18 -32 c10 -18 22 -33 27 -33 18 0 10 38 -14 67 -12 15 -28 38 -35 51 -12
22 -22 27 -33 16z m-13 -279 c0 -23 -30 -32 -50 -15 -21 18 -7 42 24 38 18 -2
26 -9 26 -23z"/>
<path d="M1077 2717 c-3 -8 1 -14 8 -14 7 0 11 6 8 14 -3 7 -6 13 -8 13 -2 0
-5 -6 -8 -13z"/>
<path d="M3790 2701 l-105 -27 -3 -77 c-2 -66 -1 -76 13 -71 11 5 15 21 15 65
l0 58 53 16 c28 8 69 18 90 22 l37 6 0 -91 c0 -63 -4 -92 -12 -95 -10 -3 -10
-9 -1 -24 7 -12 8 -25 2 -34 -13 -21 -11 -41 4 -36 6 2 11 10 9 17 -1 7 2 18
8 25 14 17 19 275 5 274 -5 0 -57 -13 -115 -28z"/>
<path d="M1134 2681 c-14 -27 -17 -38 -8 -38 7 0 11 4 9 8 -3 4 2 9 10 13 9 3
12 12 8 22 -4 12 -3 15 5 10 7 -4 12 -3 12 3 0 25 -17 16 -36 -18z"/>
<path d="M1049 2674 c-16 -20 7 -25 25 -5 14 15 14 18 1 18 -8 0 -20 -6 -26
-13z"/>
<path d="M982 2652 c-33 -10 -32 -26 1 -30 17 -2 29 2 33 12 3 9 11 13 17 9 6
-3 7 -1 3 5 -8 13 -18 14 -54 4z"/>
<path d="M1082 2618 c-15 -15 -15 -28 0 -28 6 0 8 3 5 7 -4 3 -2 12 4 20 14
16 7 17 -9 1z"/>
<path d="M3485 2520 c-4 -6 6 -10 24 -10 16 0 33 5 36 10 4 6 -6 10 -24 10
-16 0 -33 -4 -36 -10z"/>
<path d="M3818 2509 c-10 -5 -23 -19 -29 -30 -13 -25 9 -63 40 -72 28 -7 27
16 -1 37 l-23 15 23 20 c35 31 28 53 -10 30z"/>
<path d="M3682 2483 c-9 -24 -9 -40 -2 -98 0 -5 7 -1 15 9 16 21 21 116 6 116
-5 0 -13 -12 -19 -27z"/>
<path d="M2790 2468 c0 -10 18 -12 65 -10 84 5 84 22 0 22 -45 0 -65 -4 -65
-12z"/>
<path d="M3610 2460 c0 -17 3 -19 19 -10 32 16 34 30 7 30 -19 0 -26 -5 -26
-20z"/>
<path d="M1116 2455 c-4 -12 4 -15 39 -15 l45 0 0 -113 c0 -61 -5 -128 -11
-147 -6 -19 -14 -75 -17 -125 l-7 -90 -38 -3 c-57 -5 -64 6 -69 111 -3 50 -12
112 -21 137 -11 30 -17 78 -17 143 0 63 -4 96 -10 92 -17 -11 -11 -194 10
-285 11 -47 20 -110 20 -141 0 -30 5 -60 12 -67 7 -7 38 -12 70 -12 70 0 78
10 78 107 0 37 7 93 15 123 21 78 20 263 -1 284 -20 21 -90 21 -98 1z"/>
<path d="M2932 2440 c-8 -16 -13 -44 -12 -62 1 -18 2 -54 1 -80 l-1 -48 -60 0
-60 0 0 48 c-1 26 -7 58 -15 72 -13 23 -14 19 -15 -60 0 -54 4 -90 12 -98 17
-17 142 -16 157 2 8 9 11 54 9 135 -3 111 -4 119 -16 91z m-52 -215 c0 -15
-43 -12 -48 3 -3 10 4 13 22 10 15 -2 26 -7 26 -13z"/>
<path d="M3582 2425 c0 -16 2 -22 5 -12 2 9 2 23 0 30 -3 6 -5 -1 -5 -18z"/>
<path d="M2792 2410 c0 -14 2 -19 5 -12 2 6 2 18 0 25 -3 6 -5 1 -5 -13z"/>
<path d="M3606 2394 c-3 -7 2 -15 10 -18 26 -10 44 -7 44 8 0 18 -47 27 -54
10z"/>
<path d="M1100 2386 c0 -8 -7 -16 -15 -20 -8 -3 -15 -10 -15 -16 0 -5 7 -10
15 -10 8 0 15 7 15 15 0 8 7 15 15 15 8 0 15 7 15 15 0 8 -7 15 -15 15 -8 0
-15 -6 -15 -14z"/>
<path d="M1140 2355 c0 -8 5 -15 10 -15 6 0 10 7 10 15 0 8 -4 15 -10 15 -5 0
-10 -7 -10 -15z"/>
<path d="M3795 2330 c-4 -6 -21 -10 -40 -8 -19 1 -44 -6 -60 -18 -45 -31 -48
-33 -90 -39 -27 -5 -51 -19 -77 -45 -34 -34 -38 -43 -38 -90 0 -106 55 -150
189 -150 l81 0 0 -35 c0 -24 5 -35 15 -35 10 0 15 11 15 35 l0 35 105 0 c102
0 106 1 137 29 28 25 33 36 33 76 0 40 -5 51 -33 76 -18 16 -40 29 -50 29 -11
0 -26 19 -42 53 -18 38 -36 58 -65 74 -45 24 -71 28 -80 13z m86 -56 c17 -16
36 -48 42 -71 9 -37 15 -43 37 -43 59 0 93 -57 66 -109 -20 -38 -31 -41 -142
-41 l-94 0 0 52 0 52 30 -29 c20 -19 34 -25 40 -19 6 6 -6 26 -38 57 l-48 47
-43 -44 c-26 -26 -40 -49 -36 -56 5 -8 16 -3 36 16 l29 28 0 -53 0 -53 -91 4
c-88 3 -92 4 -120 36 -54 61 -30 157 46 182 19 6 44 9 55 5 15 -5 27 2 47 25
34 41 58 51 111 46 31 -3 52 -12 73 -32z"/>
<path d="M1100 2320 c0 -5 7 -10 15 -10 8 0 15 5 15 10 0 6 -7 10 -15 10 -8 0
-15 -4 -15 -10z"/>
<path d="M1070 2285 c0 -8 7 -15 15 -15 8 0 15 7 15 15 0 8 -7 15 -15 15 -8 0
-15 -7 -15 -15z"/>
<path d="M1140 2285 c0 -8 5 -15 10 -15 6 0 10 7 10 15 0 8 -4 15 -10 15 -5 0
-10 -7 -10 -15z"/>
<path d="M1070 2214 c0 -17 22 -14 28 4 2 7 -3 12 -12 12 -9 0 -16 -7 -16 -16z"/>
<path d="M1140 2215 c0 -8 5 -15 10 -15 6 0 10 7 10 15 0 8 -4 15 -10 15 -5 0
-10 -7 -10 -15z"/>
<path d="M684 2195 c-4 -8 -1 -22 6 -30 6 -7 10 -26 8 -42 -3 -26 -6 -28 -58
-31 -60 -3 -80 -14 -80 -43 0 -11 -7 -19 -15 -19 -10 0 -15 -10 -15 -30 0 -19
5 -30 14 -30 7 0 16 -14 20 -30 4 -24 12 -32 36 -36 21 -5 30 -12 30 -25 0
-16 -8 -19 -52 -19 -29 0 -58 -4 -64 -8 -17 -11 -23 -152 -7 -152 9 0 13 19
13 64 0 35 4 66 10 68 5 2 91 2 190 0 l180 -3 0 -64 c0 -37 4 -65 10 -65 14 0
13 133 -2 148 -7 7 -36 12 -65 12 -45 0 -53 3 -53 19 0 12 9 20 29 24 22 5 31
13 36 37 4 16 13 30 21 30 9 0 14 11 14 30 0 18 -5 30 -13 30 -7 0 -18 13 -24
29 -10 28 -15 30 -69 33 -56 3 -59 4 -62 31 -2 16 1 34 7 41 6 8 9 21 5 30 -8
20 -43 21 -50 1z m146 -195 l0 -70 -120 0 -120 0 0 70 0 70 120 0 120 0 0 -70z
m-70 -120 c0 -18 -7 -20 -55 -20 -48 0 -55 2 -55 20 0 18 7 20 55 20 48 0 55
-2 55 -20z"/>
<path d="M630 2015 c0 -8 5 -15 10 -15 6 0 10 7 10 15 0 8 -4 15 -10 15 -5 0
-10 -7 -10 -15z"/>
<path d="M760 2015 c0 -8 7 -15 15 -15 8 0 15 7 15 15 0 8 -7 15 -15 15 -8 0
-15 -7 -15 -15z"/>
<path d="M1113 2163 c-18 -7 -16 -23 2 -23 8 0 15 7 15 15 0 8 -1 15 -2 14 -2
0 -9 -3 -15 -6z"/>
<path d="M1100 2085 c0 -8 7 -15 15 -15 8 0 15 7 15 15 0 8 -7 15 -15 15 -8 0
-15 -7 -15 -15z"/>
<path d="M1100 2015 c0 -8 7 -15 15 -15 8 0 15 7 15 15 0 8 -7 15 -15 15 -8 0
-15 -7 -15 -15z"/>
<path d="M1730 1755 l0 -135 203 2 202 3 3 32 3 33 59 -30 c33 -17 62 -30 65
-30 3 0 5 59 5 130 0 72 -2 130 -5 130 -3 0 -32 -14 -65 -30 l-60 -30 0 30 0
30 -205 0 -205 0 0 -135z m378 3 l-3 -103 -170 0 -170 0 -3 103 -3 102 176 0
176 0 -3 -102z m132 2 c0 -44 -2 -80 -5 -80 -2 0 -25 10 -50 22 -41 20 -45 25
-45 58 0 32 4 38 43 57 23 12 45 22 50 22 4 1 7 -35 7 -79z"/>
<path d="M3220 1745 l0 -145 130 0 c80 0 130 4 130 10 0 6 -35 10 -85 10 -78
0 -85 2 -85 20 0 11 -7 20 -15 20 -8 0 -15 -9 -15 -20 0 -13 -7 -20 -20 -20
-19 0 -20 7 -20 125 0 118 1 125 20 125 13 0 20 -7 20 -20 0 -11 7 -20 15 -20
8 0 15 9 15 20 0 19 7 20 105 20 98 0 105 -1 105 -20 0 -11 5 -20 10 -20 6 0
10 9 10 21 0 15 5 20 23 17 19 -3 22 -10 25 -55 4 -76 22 -66 22 12 l0 65
-195 0 -195 0 0 -145z"/>
<path d="M3990 1865 l-24 -25 29 -30 c27 -28 58 -32 34 -4 -10 12 12 14 150
14 l161 0 0 -50 c0 -38 4 -50 15 -50 12 0 15 14 15 65 l0 65 -176 0 c-171 0
-175 1 -169 20 9 27 -7 25 -35 -5z"/>
<path d="M1290 1795 c-7 -9 -29 -15 -51 -15 l-39 0 0 -165 0 -165 60 0 c68 0
76 -12 36 -50 -17 -15 -38 -23 -66 -24 -35 -1 -47 4 -71 32 -26 29 -29 39 -29
102 0 56 3 70 15 70 12 0 15 18 15 101 l0 100 -47 -3 -48 -3 -3 -97 c-3 -91
-1 -98 17 -98 17 0 19 -9 23 -81 3 -79 4 -82 40 -115 32 -29 45 -34 87 -34 39
0 56 6 81 27 17 14 36 37 41 50 8 22 12 23 129 23 l120 0 0 165 0 165 -44 0
c-26 0 -48 6 -56 15 -9 11 -35 15 -105 15 -70 0 -96 -4 -105 -15z m200 -30 c7
-8 28 -15 47 -15 l34 0 -3 -137 -3 -138 -167 -3 -168 -2 0 140 0 140 29 0 c16
0 34 7 41 15 9 11 34 15 95 15 61 0 86 -4 95 -15z m-360 -35 c0 -13 -7 -20
-20 -20 -13 0 -20 7 -20 20 0 13 7 20 20 20 13 0 20 -7 20 -20z m0 -85 c0 -28
-4 -35 -20 -35 -16 0 -20 7 -20 35 0 28 4 35 20 35 16 0 20 -7 20 -35z"/>
<path d="M1270 1695 c0 -8 5 -15 10 -15 6 0 10 7 10 15 0 8 -4 15 -10 15 -5 0
-10 -7 -10 -15z"/>
<path d="M1351 1696 c-53 -30 -66 -97 -26 -144 32 -38 65 -46 110 -28 67 28
79 114 23 161 -33 28 -70 31 -107 11z m98 -42 c27 -35 26 -59 -4 -89 -30 -30
-54 -31 -89 -4 -32 25 -34 64 -4 96 29 31 71 30 97 -3z"/>
<path d="M3280 1780 c0 -5 7 -10 15 -10 8 0 15 5 15 10 0 6 -7 10 -15 10 -8 0
-15 -4 -15 -10z"/>
<path d="M3520 1780 c0 -5 5 -10 10 -10 6 0 10 5 10 10 0 6 -4 10 -10 10 -5 0
-10 -4 -10 -10z"/>
<path d="M4116 1768 c-3 -10 -8 -25 -11 -33 -2 -9 -11 -18 -20 -20 -54 -17
-52 -15 -32 -29 22 -17 22 -52 1 -64 -20 -11 -10 -34 12 -25 21 8 53 -24 47
-48 -6 -22 15 -26 23 -4 4 8 17 15 30 15 14 0 27 -7 30 -15 9 -22 37 -19 30 3
-8 24 25 55 48 46 10 -4 16 -1 16 9 0 8 -7 17 -15 21 -8 3 -15 16 -15 30 0 13
7 26 15 30 22 8 18 29 -4 23 -24 -6 -56 26 -48 47 9 22 -14 32 -25 12 -12 -21
-47 -21 -64 2 -12 16 -13 16 -18 0z m107 -80 c17 -23 18 -31 8 -57 -7 -16 -26
-35 -42 -42 -26 -10 -34 -9 -57 8 -36 26 -41 74 -12 103 29 29 77 24 103 -12z"/>
<path d="M3670 1729 c-36 -10 -84 -23 -107 -29 l-43 -11 0 -80 0 -79 -25 6
c-65 16 -101 -63 -42 -96 24 -13 30 -13 55 0 26 15 27 18 32 125 l5 109 70 18
c109 27 105 29 105 -52 l0 -70 -33 0 c-43 0 -72 -29 -63 -64 8 -31 54 -49 87
-32 22 11 24 19 29 106 3 52 3 111 0 131 l-5 36 -65 -18z m40 -194 c17 -21 5
-45 -23 -45 -35 0 -52 23 -32 44 20 20 39 20 55 1z m-193 -41 c6 -15 -19 -44
-37 -44 -3 0 -15 6 -25 14 -27 19 -13 46 25 46 19 0 33 -6 37 -16z"/>
<path d="M3280 1710 c0 -5 7 -10 15 -10 8 0 15 5 15 10 0 6 -7 10 -15 10 -8 0
-15 -4 -15 -10z"/>
<path d="M3970 1515 l0 -65 171 0 c111 0 168 -3 164 -10 -15 -24 8 -25 34 -1
l29 26 -26 28 c-30 32 -46 35 -37 7 6 -19 2 -20 -149 -20 l-156 0 0 50 c0 38
-4 50 -15 50 -12 0 -15 -14 -15 -65z"/>
<path d="M2512 1510 c-42 -26 -62 -74 -62 -150 l0 -60 -35 0 -35 0 0 -150 0
-150 200 0 200 0 0 150 0 150 -35 0 -35 0 0 75 c0 71 -2 77 -33 111 -43 47
-113 57 -165 24z m142 -39 c24 -25 29 -40 34 -100 l5 -71 -107 0 -106 0 0 71
c0 65 2 73 29 100 42 41 105 41 145 0z m96 -321 l0 -120 -170 0 -170 0 0 120
0 120 170 0 170 0 0 -120z"/>
<path d="M3030 1415 c-92 -46 -120 -65 -107 -70 27 -11 25 -157 -3 -192 -13
-17 -20 -41 -20 -69 l0 -44 50 0 50 0 0 44 c0 28 -7 52 -20 69 -16 20 -20 40
-20 96 0 75 8 85 44 58 15 -11 16 -19 6 -60 -6 -27 -8 -51 -6 -55 2 -4 41 -25
85 -47 l81 -39 81 39 81 40 -6 58 -6 57 55 27 56 28 -123 62 c-68 34 -130 62
-138 62 -8 0 -71 -29 -140 -64z m241 -10 c49 -25 88 -49 85 -53 -2 -4 -45 -27
-95 -52 l-91 -44 -91 44 c-50 25 -93 48 -95 52 -5 8 163 97 184 97 7 1 53 -19
103 -44z m-156 -154 l50 -28 59 29 c32 16 62 26 66 21 5 -4 10 -21 12 -38 3
-28 -2 -32 -64 -65 l-67 -34 -70 34 c-73 35 -78 41 -61 84 12 32 13 32 75 -3z
m-147 -149 c3 -27 0 -32 -17 -32 -16 0 -21 6 -21 28 0 53 33 56 38 4z"/>
<path d="M3818 1366 c-3 -77 -6 -91 -20 -94 -15 -3 -18 4 -18 32 l0 36 -135 0
-135 0 0 -200 c0 -171 2 -200 15 -200 13 0 15 27 15 185 l0 185 105 0 c98 0
105 -1 105 -20 0 -17 -7 -20 -50 -20 l-50 0 0 -165 0 -165 50 0 50 0 0 50 c0
38 4 50 15 50 11 0 15 -12 15 -50 l0 -50 50 0 50 0 0 165 c0 140 -2 165 -15
165 -12 0 -15 13 -15 57 l0 57 50 -49 50 -49 0 -173 c0 -147 2 -173 15 -173
13 0 15 26 15 177 l0 177 -80 81 -79 82 -3 -91z m32 -261 c0 -128 -1 -135 -20
-135 -17 0 -20 7 -20 50 l0 50 -44 0 -45 0 -3 -47 c-2 -36 -7 -49 -20 -51 -16
-3 -18 8 -18 132 l0 136 85 0 85 0 0 -135z"/>
<path d="M3714 1199 c-10 -17 13 -36 27 -22 12 12 4 33 -11 33 -5 0 -12 -5
-16 -11z"/>
<path d="M3787 1203 c-12 -11 -8 -23 8 -23 8 0 15 7 15 15 0 16 -12 20 -23 8z"/>
<path d="M3720 1126 c0 -9 7 -16 16 -16 9 0 14 5 12 12 -6 18 -28 21 -28 4z"/>
<path d="M3780 1125 c0 -8 7 -15 15 -15 8 0 15 7 15 15 0 8 -7 15 -15 15 -8 0
-15 -7 -15 -15z"/>
<path d="M3580 1255 c0 -8 7 -15 15 -15 8 0 15 7 15 15 0 8 -7 15 -15 15 -8 0
-15 -7 -15 -15z"/>
<path d="M1345 1240 c-32 -12 -48 -38 -54 -83 -6 -39 -9 -42 -38 -45 l-33 -3
0 -183 c0 -164 2 -185 18 -199 16 -15 45 -17 200 -17 l181 0 20 26 c19 25 21
40 21 200 l0 174 -34 0 c-32 0 -34 2 -39 42 -3 26 -15 51 -31 67 -24 24 -34
26 -109 27 -45 1 -91 -2 -102 -6z m90 -45 c16 -15 25 -36 25 -55 l0 -30 -70 0
c-80 0 -91 10 -70 60 23 55 75 66 115 25z m102 3 c15 -14 23 -33 23 -55 0 -31
-2 -33 -34 -33 -31 0 -34 3 -40 38 -4 20 -9 45 -12 55 -8 25 34 22 63 -5z m-7
-289 l0 -170 -137 3 -138 3 -3 167 -2 167 122 3 c68 2 131 1 141 -1 15 -3 17
-19 17 -172z m100 12 c0 -162 -4 -181 -42 -181 -31 0 -38 35 -38 189 0 159 0
160 52 153 l28 -4 0 -157z"/>
<path d="M3587 1203 c-12 -11 -8 -23 8 -23 8 0 15 7 15 15 0 16 -12 20 -23 8z"/>
<path d="M3580 1125 c0 -8 7 -15 15 -15 8 0 15 7 15 15 0 8 -7 15 -15 15 -8 0
-15 -7 -15 -15z"/>
<path d="M3580 1055 c0 -8 7 -15 15 -15 8 0 15 7 15 15 0 8 -7 15 -15 15 -8 0
-15 -7 -15 -15z"/>
<path d="M3580 985 c0 -8 7 -15 15 -15 8 0 15 7 15 15 0 8 -7 15 -15 15 -8 0
-15 -7 -15 -15z"/>
<path d="M2450 901 c-75 -24 -145 -87 -176 -158 -37 -86 -15 -213 50 -290 33
-39 115 -81 176 -89 53 -7 133 11 127 29 -3 7 -11 11 -18 9 -102 -25 -186 -3
-254 65 -102 102 -95 264 17 358 48 41 90 55 158 55 137 0 241 -102 242 -238
1 -95 -62 -143 -117 -88 -23 23 -25 32 -25 121 0 78 -3 95 -15 95 -8 0 -15 -7
-15 -15 0 -19 -9 -19 -34 0 -11 8 -37 15 -59 15 -52 0 -101 -47 -112 -107 -13
-81 46 -163 118 -163 13 0 41 12 62 26 l38 25 21 -20 c28 -26 77 -36 105 -21
84 44 82 207 -4 308 -47 57 -108 85 -189 88 -39 2 -82 0 -96 -5z m124 -192
c57 -67 15 -179 -67 -179 -50 0 -100 84 -83 138 25 77 102 98 150 41z"/>
<path d="M4259 145 c-6 -74 -6 -87 -2 -72 2 9 9 17 14 17 5 0 9 -8 10 -17 0
-15 2 -15 8 2 10 23 4 38 -10 30 -5 -4 -9 -1 -9 4 0 6 9 11 20 11 14 0 18 5
13 16 -5 13 -7 13 -14 2 -7 -11 -11 -10 -19 2 -5 8 -10 11 -11 5z"/>
<path d="M4325 140 c-3 -5 0 -7 8 -4 25 9 28 -12 7 -39 -27 -34 -25 -37 13
-36 23 1 26 3 10 6 -21 4 -22 6 -7 29 9 13 14 31 10 39 -6 17 -32 20 -41 5z"/>
<path d="M4394 136 c-11 -30 0 -71 20 -71 23 0 36 32 25 63 -9 25 -37 30 -45
8z m34 -37 c-1 -13 -7 -23 -13 -22 -13 3 -18 30 -11 50 10 24 29 1 24 -28z"/>
<path d="M4470 118 c-19 -31 -19 -33 -2 -37 9 -2 20 -8 25 -15 12 -19 23 10
19 49 -5 44 -17 44 -42 3z m20 -13 c0 -8 -4 -15 -10 -15 -5 0 -7 7 -4 15 4 8
8 15 10 15 2 0 4 -7 4 -15z"/>
<path d="M4537 143 c-11 -19 -5 -74 9 -80 18 -7 46 16 37 31 -4 6 -7 20 -8 31
0 20 -29 33 -38 18z m33 -18 c0 -8 -4 -15 -9 -15 -13 0 -22 16 -14 24 11 11
23 6 23 -9z m-2 -44 c3 -8 -1 -12 -9 -9 -7 2 -15 10 -17 17 -3 8 1 12 9 9 7
-2 15 -10 17 -17z"/>
<path d="M4600 131 c0 -11 9 -21 21 -24 24 -7 20 -33 -5 -31 -9 1 -16 -3 -16
-8 0 -5 10 -8 23 -6 27 4 37 45 13 54 -21 8 -20 21 2 27 10 3 6 5 -10 6 -21 1
-28 -4 -28 -18z"/>
<path d="M4677 144 c-16 -16 -7 -44 14 -44 12 0 19 -5 16 -12 -2 -7 -12 -12
-21 -12 -9 1 -16 -3 -16 -8 0 -5 10 -8 23 -6 19 3 22 9 22 43 0 28 -5 41 -15
43 -9 1 -19 0 -23 -4z m33 -25 c0 -5 -7 -9 -15 -9 -15 0 -20 12 -9 23 8 8 24
-1 24 -14z"/>
<path d="M4747 143 c-2 -4 -5 -23 -5 -41 -1 -36 21 -53 41 -33 15 15 54 14 60
-1 10 -24 23 10 19 47 -5 43 -18 45 -40 5 -20 -34 -36 -34 -37 1 0 23 -28 39
-38 22z m33 -18 c0 -8 -4 -15 -9 -15 -13 0 -22 16 -14 24 11 11 23 6 23 -9z
m60 -20 c0 -8 -4 -15 -10 -15 -5 0 -7 7 -4 15 4 8 8 15 10 15 2 0 4 -7 4 -15z
m-62 -24 c3 -8 -1 -12 -9 -9 -7 2 -15 10 -17 17 -3 8 1 12 9 9 7 -2 15 -10 17
-17z"/>
<path d="M4897 114 c4 -25 2 -39 -8 -45 -10 -6 -7 -9 11 -9 24 0 25 3 22 45
-3 29 -9 45 -17 45 -10 0 -12 -10 -8 -36z"/>
</g>
</svg>
